<?xml version="1.0" standalone="no"?>
<!DOCTYPE svg PUBLIC "-//W3C//DTD SVG 20010904//EN"
 "http://www.w3.org/TR/2001/REC-SVG-20010904/DTD/svg10.dtd">
<svg version="1.0" xmlns="http://www.w3.org/2000/svg"
 width="704.000000pt" height="704.000000pt" viewBox="0 0 704.000000 704.000000"
 preserveAspectRatio="xMidYMid meet">
<metadata>
Created by potrace 1.14, written by Peter Selinger 2001-2017
</metadata>
<g transform="translate(0.000000,704.000000) scale(0.100000,-0.100000)"
fill="#000000" stroke="none">
<path d="M2540 6699 c-129 -22 -154 -27 -205 -41 -22 -6 -44 -12 -50 -14 -69
-17 -242 -85 -315 -124 -19 -10 -55 -29 -80 -42 -62 -33 -222 -139 -241 -160
-9 -10 -19 -18 -23 -18 -20 0 -233 -211 -313 -310 -232 -288 -351 -610 -368
-1000 -8 -172 -12 -188 -53 -207 -222 -101 -433 -283 -577 -498 -79 -118 -166
-316 -191 -434 -46 -224 -38 -431 25 -627 41 -129 129 -334 151 -354 3 -3 18
-26 33 -52 15 -26 33 -53 40 -60 6 -7 25 -31 42 -53 86 -117 275 -266 427
-338 106 -51 305 -113 423 -132 72 -12 177 -26 218 -28 54 -4 67 -16 67 -64 0
-57 39 -203 75 -280 61 -132 152 -245 269 -332 68 -52 209 -126 256 -134 14
-3 36 -9 50 -15 14 -5 52 -13 85 -17 282 -34 520 42 723 230 l73 68 67 -35
c161 -84 208 -110 216 -119 6 -5 18 -9 28 -9 10 0 18 -4 18 -9 0 -5 17 -16 38
-25 20 -8 60 -28 87 -44 28 -16 100 -55 160 -87 61 -32 147 -77 191 -101 45
-24 94 -51 110 -59 l29 -15 0 -142 c0 -91 5 -158 13 -183 19 -58 21 -65 22
-70 0 -11 55 -113 81 -151 79 -115 209 -213 344 -259 82 -28 95 -29 225 -30
96 0 139 5 185 19 226 72 389 232 463 453 21 64 26 100 28 197 1 65 -2 132 -7
150 -6 17 -14 47 -20 66 -117 389 -573 589 -946 414 -63 -30 -108 -61 -163
-111 -39 -37 -45 -38 -80 -20 -45 24 -224 120 -305 165 -44 24 -98 52 -120 63
-22 11 -60 31 -85 45 -54 31 -240 129 -330 176 -72 37 -82 46 -74 68 24 60 34
222 20 320 -11 77 -29 155 -38 165 -4 5 -8 16 -8 25 0 20 -63 142 -103 198
-49 70 -125 149 -191 199 -76 56 -220 126 -311 149 -94 24 -291 28 -377 8 -34
-9 -70 -17 -78 -19 -41 -10 -162 -60 -185 -78 -5 -4 -35 -24 -65 -44 -99 -66
-228 -211 -271 -305 -12 -27 -22 -33 -44 -28 -5 2 -22 2 -36 1 -25 -1 -214 22
-269 34 -26 5 -127 33 -145 39 -5 2 -20 7 -33 11 -13 4 -54 23 -92 41 -203 97
-349 267 -450 524 -12 30 -23 60 -24 65 -1 6 -7 26 -14 45 -40 122 -47 273
-18 428 17 92 93 248 167 344 42 53 148 162 204 208 72 59 264 180 286 180 6
0 28 12 49 28 56 39 80 112 95 282 3 41 8 86 10 100 2 14 6 54 10 90 3 36 8
76 10 90 3 14 7 41 10 60 11 64 46 198 67 252 11 29 22 63 25 76 3 12 9 22 14
22 5 0 9 6 9 14 0 28 86 166 158 255 55 67 147 156 213 206 164 124 400 234
579 271 14 3 45 10 70 15 77 17 140 22 300 23 178 1 254 -7 384 -40 122 -31
262 -86 278 -109 4 -5 8 -7 8 -3 0 9 105 -54 172 -102 89 -64 203 -179 283
-285 105 -140 112 -147 158 -169 51 -24 159 -24 257 -1 226 53 372 42 517 -37
87 -47 176 -116 245 -189 50 -52 91 -109 126 -174 21 -38 46 -100 41 -100 -1
0 3 -10 9 -21 13 -25 21 -83 27 -206 4 -92 27 -155 69 -191 27 -24 102 -62
141 -72 69 -16 212 -45 255 -51 19 -2 46 -7 60 -11 14 -3 30 -7 37 -9 121 -25
262 -101 345 -187 135 -139 267 -403 305 -610 13 -72 11 -287 -3 -349 -51
-218 -187 -424 -368 -557 -56 -41 -206 -126 -206 -116 0 3 -11 -2 -25 -11 -14
-9 -25 -13 -25 -9 0 4 -6 3 -12 -3 -7 -6 -51 -20 -98 -32 -113 -29 -117 -30
-175 -36 -27 -2 -57 -7 -65 -10 -8 -3 -114 -8 -235 -10 -365 -6 -464 -6 -475
1 -5 3 -10 3 -10 -2 0 -4 -159 -8 -353 -7 -193 0 -357 -2 -364 -4 -9 -3 -12
-56 -12 -200 l1 -197 171 2 c95 1 424 4 732 7 308 2 569 7 580 9 11 3 45 8 75
11 459 53 836 288 1086 678 75 117 158 302 179 403 2 11 7 31 10 45 15 65 20
126 20 255 -1 189 -13 261 -73 435 -24 71 -114 258 -130 270 -4 3 -13 17 -21
32 -8 15 -22 37 -33 47 -10 11 -18 23 -18 27 0 30 -267 293 -297 294 -6 0 -13
4 -15 8 -1 4 -25 21 -53 38 -46 27 -74 42 -160 80 -44 19 -169 59 -178 56 -4
-1 -16 2 -25 7 -9 5 -30 11 -47 14 -33 5 -120 34 -147 48 -19 10 -35 58 -37
109 -4 115 -70 285 -163 424 -41 60 -199 225 -248 259 -161 111 -375 213 -490
233 -14 3 -32 7 -40 10 -31 11 -88 17 -175 17 -96 1 -115 -2 -213 -27 -76 -20
-84 -16 -142 61 -42 56 -192 211 -257 264 -17 14 -64 48 -105 75 -40 27 -75
51 -78 54 -19 19 -222 117 -322 156 -81 32 -244 78 -312 89 -17 3 -42 7 -56
10 -72 14 -120 17 -285 19 -134 2 -207 -2 -285 -15z m40 -3978 c216 -74 352
-263 354 -491 1 -92 -27 -230 -46 -230 -5 0 -8 -7 -8 -15 0 -9 -4 -21 -10 -28
-5 -7 -28 -35 -50 -64 -37 -48 -154 -142 -167 -135 -3 2 -9 -1 -12 -6 -7 -10
-90 -38 -141 -47 -285 -49 -564 153 -606 440 -6 36 -4 139 2 170 9 47 12 60
14 63 2 1 3 5 4 10 13 56 66 140 127 203 68 70 124 103 228 134 97 29 219 27
311 -4z m2228 -1389 c89 -29 161 -93 203 -179 24 -49 26 -58 32 -132 14 -153
-97 -305 -252 -346 -52 -13 -161 -13 -183 2 -7 4 -15 8 -18 8 -51 7 -133 72
-174 138 -16 27 -31 54 -33 60 -29 123 -25 188 17 274 19 37 49 78 78 104 46
40 116 76 139 71 6 -1 14 1 17 6 7 12 133 7 174 -6z"/>
</g>
</svg>
